<mxfile host="app.diagrams.net" modified="2024-02-08T00:24:37.625Z" agent="Mozilla/5.0 (Macintosh; Intel Mac OS X 10_15_7) AppleWebKit/537.36 (KHTML, like Gecko) Chrome/120.0.0.0 Safari/537.36" etag="b-hHq0LNcZ2_WsIXshnd" version="23.1.1" type="device">
  <diagram name="Page-1" id="KvPsE4NZ143YMVgyQ156">
    <mxGraphModel dx="934" dy="505" grid="1" gridSize="10" guides="1" tooltips="1" connect="1" arrows="1" fold="1" page="1" pageScale="1" pageWidth="827" pageHeight="1169" math="0" shadow="0">
      <root>
        <mxCell id="0" />
        <mxCell id="1" parent="0" />
        <mxCell id="4Z0tkJbFJOq5r4Ne0CkO-1" value="" style="whiteSpace=wrap;html=1;aspect=fixed;" vertex="1" parent="1">
          <mxGeometry x="290" y="30" width="500" height="500" as="geometry" />
        </mxCell>
        <mxCell id="4Z0tkJbFJOq5r4Ne0CkO-2" value="Utilisateur Passager" style="shape=umlActor;verticalLabelPosition=bottom;verticalAlign=top;html=1;outlineConnect=0;" vertex="1" parent="1">
          <mxGeometry x="130" y="110" width="50" height="100" as="geometry" />
        </mxCell>
        <mxCell id="4Z0tkJbFJOq5r4Ne0CkO-4" value="Choisi le nombre de passager à ajouter au véhicule selon la disponibilité" style="ellipse;whiteSpace=wrap;html=1;" vertex="1" parent="1">
          <mxGeometry x="370" y="80" width="350" height="90" as="geometry" />
        </mxCell>
        <mxCell id="4Z0tkJbFJOq5r4Ne0CkO-5" value="Confirmation et paiement en ligne&amp;nbsp;" style="ellipse;whiteSpace=wrap;html=1;" vertex="1" parent="1">
          <mxGeometry x="370" y="220" width="350" height="90" as="geometry" />
        </mxCell>
        <mxCell id="4Z0tkJbFJOq5r4Ne0CkO-6" value="Confirmation et réception des détails de trajets" style="ellipse;whiteSpace=wrap;html=1;" vertex="1" parent="1">
          <mxGeometry x="365" y="360" width="360" height="90" as="geometry" />
        </mxCell>
        <mxCell id="4Z0tkJbFJOq5r4Ne0CkO-7" value="" style="endArrow=classic;html=1;rounded=0;entryX=0;entryY=0;entryDx=0;entryDy=0;" edge="1" parent="1" source="4Z0tkJbFJOq5r4Ne0CkO-2" target="4Z0tkJbFJOq5r4Ne0CkO-6">
          <mxGeometry width="50" height="50" relative="1" as="geometry">
            <mxPoint x="380" y="330" as="sourcePoint" />
            <mxPoint x="430" y="280" as="targetPoint" />
          </mxGeometry>
        </mxCell>
        <mxCell id="4Z0tkJbFJOq5r4Ne0CkO-8" value="" style="endArrow=classic;html=1;rounded=0;" edge="1" parent="1" source="4Z0tkJbFJOq5r4Ne0CkO-2" target="4Z0tkJbFJOq5r4Ne0CkO-5">
          <mxGeometry width="50" height="50" relative="1" as="geometry">
            <mxPoint x="200" y="140" as="sourcePoint" />
            <mxPoint x="438" y="333" as="targetPoint" />
          </mxGeometry>
        </mxCell>
        <mxCell id="4Z0tkJbFJOq5r4Ne0CkO-9" value="" style="endArrow=classic;html=1;rounded=0;entryX=0;entryY=1;entryDx=0;entryDy=0;" edge="1" parent="1" source="4Z0tkJbFJOq5r4Ne0CkO-2" target="4Z0tkJbFJOq5r4Ne0CkO-4">
          <mxGeometry width="50" height="50" relative="1" as="geometry">
            <mxPoint x="190" y="127.5" as="sourcePoint" />
            <mxPoint x="434" y="192.5" as="targetPoint" />
          </mxGeometry>
        </mxCell>
      </root>
    </mxGraphModel>
  </diagram>
</mxfile>
